Coordinates
version=1
nRows=13
nColumns=36
inDegrees=yes

Units are S.I. units (second, meters, Newtons, ...)
If the header above contains a line with 'inDegrees', this indicates whether rotational values are in degrees (yes) or radians (no).

endheader
time	pelvis_tilt	pelvis_list	pelvis_rotation	pelvis_tx	pelvis_ty	pelvis_tz	hip_flexion_r	hip_adduction_r	hip_rotation_r	knee_angle_r	knee_angle_r_beta	ankle_angle_r	subtalar_angle_r	mtp_angle_r	hip_flexion_l	hip_adduction_l	hip_rotation_l	knee_angle_l	knee_angle_l_beta	ankle_angle_l	subtalar_angle_l	mtp_angle_l	lumbar_extension	lumbar_bending	lumbar_rotation	arm_flex_r	arm_add_r	arm_rot_r	elbow_flex_r	pro_sup_r	arm_flex_l	arm_add_l	arm_rot_l	elbow_flex_l	pro_sup_l
      0.00000000	      1.47046705	     -1.39680037	      1.95543852	     -0.89529337	      1.24008742	     -0.06924496	     -1.53381513	      1.92802096	      0.02928340	     11.75794046	      0.20521477	      5.69448641	    -10.42559665	     -6.32124627	     -5.24383032	     -1.98256486	      2.29104197	      5.32459486	      0.09293171	     11.29291520	     -1.57533679	     -6.32124627	     -6.46336150	      4.10392130	      0.63209244	      2.60372741	     -9.45736729	     14.17983384	     25.22664152	     72.99968327	     -6.63917492	     -8.07906824	      9.71892793	     28.14177801	     68.99895179
      0.00416670	     -0.46639192	     -0.47626556	      2.44956060	     -0.89403307	      1.24092494	     -0.06872177	      0.73361594	      1.13962738	     -0.01377234	     11.90730067	      0.20782160	      8.75925477	     -9.19610205	     -6.34194429	     -2.73311099	     -0.40295141	      4.00140281	      5.51212723	      0.09620477	     10.49275636	     -0.59662675	     -6.34194429	     -3.55140938	      3.18347028	     -0.23061959	      2.14628506	     -8.66541697	     13.27667772	     25.01812130	     73.36006782	     -7.73737172	     -7.76854348	      8.95270723	     27.82713480	     69.17752074
      0.00833330	     -1.38364610	      0.46442253	      2.59741935	     -0.89449664	      1.23967521	     -0.06863106	      1.37615813	     -0.01582773	     -1.30760756	     11.05799523	      0.19299843	      9.61525611	     -7.71741299	     -6.48739868	     -1.65417437	      0.58292690	      3.97406775	      5.75670646	      0.10047348	      9.92349438	     -0.68961529	     -6.48739868	     -2.26057362	      1.87654817	     -0.29307359	      1.78304903	     -7.85688455	     10.51798919	     24.85037142	     72.63583661	     -8.02118269	     -7.93300009	      7.14940277	     27.85456255	     68.67608041
      0.01250000	     -1.19544017	      0.98649187	      2.71169738	     -0.89405136	      1.23974272	     -0.06904276	      1.01445859	     -0.65671980	     -1.89856163	     10.88779512	      0.19002787	     10.22392658	     -7.08266189	     -6.89840195	     -2.27963179	      1.20910471	      4.68532892	      5.14115768	      0.08973013	      9.50313653	     -1.02507538	     -6.89840195	     -2.47782838	      1.22096252	      0.26314357	      0.38543314	     -6.88092940	      1.42632256	     26.67146095	     83.50268631	     -8.05258195	     -7.86968913	      3.70803132	     28.48391200	     76.68491227
      0.01666670	     -0.85225327	      1.19691909	      2.78476588	     -0.89438993	      1.24111922	     -0.06822857	      0.43092189	     -0.80518898	     -2.03022511	     10.40085321	      0.18152913	     10.34620785	     -7.05731916	     -7.17203967	     -2.89349172	      1.43362877	      5.21276656	      4.68047799	      0.08168975	      9.26016194	     -1.52069223	     -7.17203967	     -2.91497753	      0.97960842	      0.32711194	      0.16219441	     -7.03519640	      2.65535092	     27.21866816	     77.83338296	     -8.07364828	     -8.15389807	      4.32020097	     29.17151904	     72.35945055
      0.02083330	     -0.56678126	      1.28206897	      2.90785160	     -0.89489803	      1.24243371	     -0.06791991	      0.00215995	     -0.84784838	     -2.32033800	     10.00333791	      0.17459118	     10.34969270	     -7.08586437	     -7.19139345	     -3.26723407	      1.50996167	      5.54109496	      4.46540387	      0.07793600	      9.11136070	     -1.96814538	     -7.19139345	     -3.26394745	      0.90822654	      0.41748170	      0.12259475	     -6.99674905	      2.45194344	     27.23481000	     77.69584853	     -7.80240882	     -8.14854005	      3.93171512	     29.17695812	     72.21765751
      0.02500000	     -0.42864911	      1.32997567	      3.01614667	     -0.89589517	      1.24378127	     -0.06864760	     -0.23787471	     -0.87856151	     -2.48694949	      9.61801956	      0.16786611	     10.11373234	     -7.16353323	     -7.20748283	     -3.41165948	      1.57266276	      5.78184388	      4.32019199	      0.07540157	      8.82971271	     -2.29526497	     -7.20748283	     -3.48763260	      0.85439548	      0.48344611	      0.04239292	     -7.02648161	      2.34690346	     27.25497783	     77.60827191	     -7.51340435	     -8.12592282	      3.67185534	     29.33011702	     72.13634988
      0.02916670	     -0.11074273	      1.34400265	      3.19092682	     -0.89479367	      1.24422691	     -0.06973813	     -0.76104653	     -0.86638405	     -2.64670169	      9.22944955	      0.16108428	      9.92046990	     -7.10907750	     -7.23820353	     -3.76772888	      1.60169119	      6.32598544	      4.24037077	      0.07400843	      8.42767379	     -3.18381629	     -7.23820353	     -3.90573446	      0.86958621	      0.37415586	     -0.03931204	     -7.05617849	      2.25409055	     27.41527049	     76.69477143	     -7.34341501	     -8.04818109	      3.37774359	     29.64750455	     71.42036629
      0.03333330	      0.09500354	      1.33706536	      3.28441328	     -0.89488254	      1.24429741	     -0.06884212	     -1.13127875	     -0.79754704	     -2.67898128	      8.93545479	      0.15595311	      9.68320832	     -7.15444682	     -7.24674061	     -3.97747949	      1.57828312	      6.55841823	      4.21522439	      0.07356954	      8.22508259	     -3.49047368	     -7.24674061	     -4.12050904	      0.87370240	      0.34952688	     -0.04562595	     -7.06781950	      2.31537567	     27.21062505	     76.74897907	     -7.13408473	     -8.02049881	      3.24833327	     29.63322867	     71.43187041
      0.03750000	      0.32056922	      1.32808163	      3.34435806	     -0.89489087	      1.24507822	     -0.06896340	     -1.58235036	     -0.70959163	     -2.73903566	      8.59165533	      0.14995267	      9.49647535	     -7.33739005	     -7.26391446	     -4.24178863	      1.55339666	      6.88920644	      4.18398120	      0.07302425	      7.99256350	     -3.93423115	     -7.26391446	     -4.40603514	      0.85958349	      0.19774122	     -0.04370398	     -7.05058984	      2.43571544	     27.18540770	     76.70105203	     -7.04903996	     -8.00189581	      3.05056280	     29.81115197	     71.36160997
      0.04166670	      0.52835824	      1.30499160	      3.38811348	     -0.89611887	      1.24529131	     -0.06869176	     -1.97634901	     -0.63531464	     -2.87994644	      8.27307685	      0.14439243	      9.18937343	     -7.51969018	     -7.28839431	     -4.44245423	      1.51998351	      7.15384758	      4.25774739	      0.07431171	      7.79116065	     -4.42123335	     -7.28839431	     -4.74817470	      0.85768193	      0.10679501	     -0.11315582	     -7.11218710	      2.48215990	     27.38283384	     75.72181383	     -6.98522700	     -8.03046141	      2.90353748	     30.16494480	     70.62312292
      0.04583330	      0.69948453	      1.26422035	      3.35996699	     -0.89596024	      1.24499622	     -0.06831485	     -2.29648596	     -0.52853169	     -3.02537864	      8.01673187	      0.13991837	      8.94901103	     -7.62095898	     -7.31656334	     -4.62442879	      1.46370103	      7.17313655	      4.28224720	      0.07473931	      7.73675627	     -4.48091264	     -7.31656334	     -5.00753655	      0.80873009	      0.05916057	     -0.11562018	     -7.10846510	      2.63504595	     27.49660975	     74.76049588	     -6.86381564	     -8.05902251	      2.84402453	     30.41085218	     69.93549227
      0.05000000	      0.85817168	      1.19863890	      3.36583809	     -0.89731974	      1.24635826	     -0.06791894	     -2.51354252	     -0.40121385	     -3.08964773	      7.82500823	      0.13657216	      8.74122146	     -7.76040622	     -7.34643035	     -4.76141418	      1.38250690	      7.47463784	      4.33160978	      0.07560085	      7.52858532	     -5.00643668	     -7.34643035	     -5.31481402	      0.83571912	     -0.03951928	     -0.05153687	     -7.13122072	      2.85229675	     27.57179234	     73.54945066	     -6.73335221	     -8.09365447	      2.84896740	     30.53913846	     69.09377854
